<?xml version="1.0" encoding="utf-8"?>
<!-- Generator: Adobe Illustrator 26.1.0, SVG Export Plug-In . SVG Version: 6.00 Build 0)  -->
<svg version="1.1" id="Calque_1" xmlns="http://www.w3.org/2000/svg" xmlns:xlink="http://www.w3.org/1999/xlink" x="0px" y="0px"
	 viewBox="0 0 1486 319.91" style="enable-background:new 0 0 1486 319.91;" xml:space="preserve">
<style type="text/css">
	.st0{fill:#060264;}
	.st1{fill:#CE000E;}
</style>
<g>
	<g>
		<path class="st0" d="M521.5,1.41c-10.1,2.1-18.4,6.6-24.3,13c-5.7,6.2-7.7,11.1-9.3,23.4c-2.3,16.9,0.4,33.7,7.1,44.1
			c3.8,6,8.2,9.7,26.5,22.5c19.9,13.9,24.4,17.5,26.1,20.7c2,3.9,3.4,17.1,2.4,23.2c-1.3,8.7-9.1,12.5-14.5,7.1
			c-2.5-2.4-2.5-2.7-2.5-19v-16.5h-22.1h-22.2l0.6,16.7c0.6,18,1.8,24.4,6.1,31.8c4.7,7.9,15.1,14.8,27.7,18.2
			c8,2.2,29.8,2.4,37.9,0.4c15.1-3.7,27-12.4,31.2-22.9c2.1-5.2,2.2-7.3,2.3-24.7c0-19.6-0.8-25.2-4.7-34.4
			c-3-7.2-14.7-17.7-32.8-29.6c-19.3-12.8-22.5-15.4-24.1-20.3c-2.8-8.4-0.7-21.9,3.6-23.6c3.1-1.1,6.5-0.6,8.4,1.3
			c1.5,1.5,2,4.1,2.6,13.5l0.7,11.6h21.5h21.6l-0.5-14.3c-0.6-15.3-2-21.6-6.5-27.5c-3.6-4.8-11.6-9.7-20.8-12.8
			c-6.8-2.2-10.1-2.7-21.5-3C532.8,0.11,526.3,0.41,521.5,1.41z"/>
		<path class="st0" d="M809.5,1.31c-17.4,4.1-26.8,11.1-31.7,23.6c-1.7,4.5-2.2,8.4-2.6,20.5c-0.5,17,0.4,23,4.8,32.3
			c3.5,7.5,9,12.8,23.4,22.8c6.1,4.3,15.3,10.9,20.4,14.7c11.9,8.7,13.5,11.8,13.6,25.7c0.1,9.6-0.9,13.1-4.3,15.7
			c-2.4,1.9-7.6,1.5-10.2-0.6c-2.3-1.9-2.4-2.4-2.7-19l-0.3-17.1h-22.1h-22.1l0.6,15.7c0.9,22.6,3.2,30.7,11.2,38.7
			c8.7,8.7,21.1,13.3,38.5,14.3c25.3,1.4,48.3-9.1,53.4-24.3c5.6-16.9,3.6-49.2-3.8-61.9c-4.7-8-15.6-16.9-42.6-34.7
			c-11.9-7.9-14-11.3-14-22.9c0-6.9,0.3-8.1,2.6-10.8c1.9-2.3,3.4-3.1,6-3.1c5.3,0,6.7,3.1,7.2,16.1l0.5,10.9h21.8H879v-3.8
			c-0.1-10.5-2-26.2-4-31.4c-3.5-9.3-13-16.4-27.3-20.5C840.2,0.11,817-0.39,809.5,1.31z"/>
		<path class="st0" d="M937,0.91c-11.4,2-24.1,8.7-30.1,15.9c-4.5,5.5-8.7,14.8-9.9,22.1c-1.6,10.6-1.3,97.5,0.5,109.1
			c2.4,16.1,6.3,23.5,15.9,30.4c10.8,7.6,25.7,11.2,43.2,10.2c15.5-0.9,25.9-4.9,36.1-14.2c10.9-9.7,13.6-18.5,13.7-44.8l0.1-17.8
			h-22c-12.1-0.1-22.6,0-23.2,0c-1,0.1-1.3,4.5-1.3,18.3c0,24.1-1.1,27.8-8.5,27.8c-4.1,0-6.3-1.7-7.5-5.8
			c-1.4-5.1-1.4-110.3,0-115.4c0.6-2.1,1.9-4.2,3-4.8c3.2-1.7,8.5-1.2,10.6,1.1c1.7,1.9,1.9,4.2,2.2,25.5l0.3,23.4h23.6h23.5
			l-0.5-21.8c-0.5-23.2-1.6-29.9-6.3-37.8c-5.6-9.8-19-18.3-33-20.9C959.4-0.19,944.6-0.39,937,0.91z"/>
		<path class="st0" d="M1190.2,1.41c-18.5,4-31.2,15.5-35.8,32.2c-1.8,6.3-1.9,11.2-1.9,61.3c0,53.5,0,54.6,2.2,61.5
			c6.9,21.8,27.4,33.7,55.8,32.2c20.7-1,36.1-9.3,43.9-23.6c6-11,6.1-12.6,6.1-70.1c0-40.5-0.3-53.9-1.4-58.5
			c-2.9-13-12.2-25.1-23.5-30.5C1223.6,0.31,1204.3-1.59,1190.2,1.41z M1211.7,33.61c1.7,2.5,1.8,6.9,2.1,54.3
			c0.4,56.9,0,65.2-2.9,68.1c-2.5,2.5-7.1,2.4-9.5-0.2c-1.8-2-1.9-4.5-1.9-61.6v-59.5l2.4-1.9
			C1205.3,30.01,1209.6,30.31,1211.7,33.61z"/>
		<path class="st0" d="M1315.3,1.41c-17.7,3.9-29.6,14.1-35.4,30.6c-2.3,6.3-2.3,7.4-2.7,54.6c-0.4,51.7,0.3,65.1,3.8,73
			c5.8,13.2,14.8,21.5,28.3,26c7.4,2.4,9.6,2.7,22.2,2.7c12.5,0,14.9-0.3,22.1-2.7c13.8-4.6,23.6-13.5,28.5-25.9
			c1.2-3.1,2.4-9.8,3-16.5c1.4-15.2,0.6-102.2-1-108.2c-4.6-17.4-18-29.7-36.6-33.6C1338.9-0.39,1323.6-0.39,1315.3,1.41z
			 M1336.6,33.01c1.8,2,1.9,4.6,2.2,56.3c0.2,29.7,0,56.5-0.3,59.4c-0.4,3.3-1.4,6.1-2.6,7.3c-2.5,2.5-7.1,2.4-9.5-0.2
			c-1.8-2-1.9-4.7-2.2-56.3c-0.2-29.7,0-56.5,0.3-59.4c0.4-3.3,1.4-6.1,2.6-7.3C1329.6,30.31,1334.2,30.41,1336.6,33.01z"/>
		<path class="st0" d="M1,94.01v91.1l42.8-0.4c49.5-0.5,50.5-0.7,58.2-8.7c7.1-7.3,8.2-11.7,8.7-36.1c0.6-22.5-0.2-29.5-4.2-37.6
			c-2.9-6-7.6-9.6-16.6-12.9l-6.2-2.2l5.4-1.8c12.3-4.1,16.3-9,17.9-22.2c1.1-8.7-0.1-25-2.4-32.5c-2.9-9.8-9.1-17.5-17.4-21.7
			c-8.8-4.4-23.2-5.8-61.4-6L1,2.91V94.01z M61.1,38.01c2.4,3.1,3.3,11.1,2.6,22c-0.5,8.4-1.7,12.6-4.1,14.1
			c-0.6,0.4-3.5,0.8-6.3,0.8H48v-20.1v-20.1l5.6,0.4C58.1,35.51,59.6,36.11,61.1,38.01z M60.4,106.21c1.9,1.3,2.6,2.8,3.1,7.1
			c1.1,8.3,0.1,33.7-1.3,36.3c-1.3,2.3-6.6,4.3-11.4,4.3H48v-25.1v-25.2l4.9,0.5C55.7,104.41,59,105.31,60.4,106.21z"/>
		<path class="st0" d="M128,93.81v91.1h23.5H175v-40.5v-40.5h2.9c4.7,0,9.2,2.1,10.4,4.9c0.8,1.7,1.3,14.5,1.5,39.3l0.3,36.8h22.1
			h22.1l-0.6-35.9c-0.5-26.1-1-37-2-39.9c-2.8-8.1-8.3-13-18.6-16.7c-2.3-0.8-3-1.5-2.1-1.8c0.8-0.2,4.1-1.2,7.2-2.1
			c6.4-1.9,11-6.2,12.9-12.3c1.6-5.3,2.3-33.4,1-40.8c-1.6-8.5-6.3-17.7-11.7-22.4c-8.6-7.5-15.9-8.7-60.1-9.7L128,2.61V93.81z
			 M184.5,36.31c4.4,1.9,5.5,5.8,5.5,19.4c0,15.3-2.2,19.2-10.9,19.2H175v-20v-20h3C179.7,34.91,182.6,35.51,184.5,36.31z"/>
		<path class="st0" d="M252.7,3.61c-0.4,0.3-0.7,41.3-0.7,91v90.3h24h24v-90.4c0-85.3-0.1-90.5-1.7-90.9
			C295.5,2.81,253.4,2.81,252.7,3.61z"/>
		<path class="st0" d="M311.4,4.21c-0.2,0.7-0.3,8.9-0.2,18.2l0.3,17l13,0.2l13,0.2l0.5,72.3l0.5,72.3l23.7,0.3l23.8,0.2l0.2-72.6
			l0.3-72.7l13.5-0.1l13.5-0.1l0.3-17.6c0.2-17.6,0.2-17.7-2-18.3c-1.3-0.3-24.3-0.6-51.1-0.6C321.9,2.91,311.8,3.21,311.4,4.21z"/>
		<path class="st0" d="M425.6,3.61c-0.3,0.4-0.6,41.3-0.6,91v90.3h23.5H472l-0.2-90.8l-0.3-90.7l-22.7-0.2
			C436.4,3.11,425.9,3.31,425.6,3.61z"/>
		<path class="st0" d="M610.6,3.61c-0.3,0.4-0.6,41.3-0.6,91v90.3h23.5H657v-38v-38h7h7v38v38l23.8-0.2l23.7-0.3l0.3-89.4
			c0.1-63.1-0.1-89.8-0.9-90.7c-0.8-1-6.1-1.3-23.7-1.1l-22.7,0.2l-0.3,32.2l-0.2,32.3h-7h-7l-0.2-32.3l-0.3-32.2l-22.6-0.2
			C621.4,3.11,611,3.31,610.6,3.61z"/>
		<path class="st0" d="M1025,94.01v90.9h23.5h23.5v-38v-38h7.5h7.5v38v38h23.5h23.5v-90.4c0-81.5-0.2-90.4-1.6-91
			c-0.9-0.3-11.4-0.6-23.5-0.6H1087l-0.2,32.2l-0.3,32.3l-7.2,0.3l-7.3,0.3v-31.9c0-26.4-0.2-32.1-1.4-32.5
			c-0.8-0.3-11.3-0.5-23.5-0.5H1025V94.01z"/>
		<path class="st0" d="M1404.6,3.61c-0.3,0.4-0.6,41.3-0.6,91v90.3h38h38v-18v-18h-14h-14v-71.5c0-39.3,0-71.8,0.1-72.1
			c0-0.4-0.5-1.1-1.3-1.5C1449.4,2.81,1405.5,2.71,1404.6,3.61z"/>
	</g>
	<g>
		<path class="st1" d="M0,261.91v58h743h743v-58v-58H743H0V261.91z M123.9,218.91c12.8,2.1,25.1,11.5,31.2,23.8
			c2.9,5.9,3.3,7.8,3.7,16.7c0.3,8.4,0.1,11-1.8,16.4c-3.9,11.7-11.4,20-22.9,25.5c-6.2,2.9-7.3,3.1-17.6,3.1
			c-10.2,0-11.5-0.2-17.5-3.1c-17.8-8.5-28.2-27.7-25-46.4c3.5-20.9,19.7-35.1,42-36.9C116.8,218.01,120.4,218.41,123.9,218.91z
			 M859.5,220.11c5.9,1.5,12.5,5.1,17.5,9.6l4.5,4.1l-5.7,5.7l-5.7,5.7l-3.7-3.3c-8.1-7.1-19.4-9.6-29.9-6.6
			c-4.5,1.4-6.9,2.9-11,6.9c-8,8.1-10.2,16.6-6.9,27.7c2.1,7,9.8,14.9,16.8,17.3c6.8,2.3,17,2.2,22.4-0.3c3.9-1.8,10.2-7.4,10.2-9.2
			c0-0.4-5.1-0.9-11.2-1l-11.3-0.3l-0.3-7.8l-0.3-7.7h21.2h21.2l-0.5,7c-1.1,14.4-11.6,29.1-24.6,34.1c-7,2.7-18.8,3.5-26.5,2
			c-21.4-4.5-35.7-23.3-34.5-45.6c0.3-6.4,1.1-9.5,3.6-14.8c6-12.8,18.7-22.6,32-24.6C843.1,218.01,853.3,218.51,859.5,220.11z
			 M1070.7,220.41c3.1,1.3,13.3,10.1,13.3,11.4c0,0.4-2.5,2.9-5.6,5.5l-5.6,4.8l-3.1-3c-6.2-5.8-10-6.6-14.2-2.9
			c-2.4,2-2.5,2.5-1.4,4.9c0.6,1.5,6.2,7,12.4,12.3c6.2,5.2,12.5,11.2,14.1,13.2c5.8,7.7,6.9,16.5,3,24.9
			c-3.9,8.4-12.5,13.4-23.1,13.4c-6.3,0-10.6-1.4-16.3-5.3c-3.7-2.5-10.2-10.6-10.2-12.8c0-0.9,10.7-7.9,12.1-7.9
			c0.6,0,3.1,2.2,5.6,5c4.1,4.6,4.9,5,8.9,5c5.3,0,9.4-3.3,9.4-7.6c0-2.9-3.5-6.7-18.3-19.8c-8.9-7.8-12.5-12.6-13.8-18.6
			c-1.6-7,2-15.6,8.3-20.3C1052.2,218.11,1062.9,217.21,1070.7,220.41z M1183.5,221.01c5.9,1.8,16.1,8.3,19.4,12.3
			c1.3,1.5,1,2.1-2.5,5.7c-6.2,6.5-6.5,6.5-13.7,1.5c-7.6-5.1-14.7-7.1-22.4-6.2c-26.9,3.2-33.3,39.9-9.1,52
			c4.2,2.1,6.6,2.6,12.7,2.6c8.7,0,13.9-2,20.9-7.7l4.4-3.6l4.9,4.9c2.7,2.6,4.9,5.4,4.9,6c0,1.6-6.8,7.6-12.1,10.7
			c-5.8,3.4-14.9,5.7-22.6,5.7c-18.7,0-33-8.8-40.6-24.8c-3-6.3-3.2-7.3-3.2-18.2c0.1-14.5,2.1-20.3,10.2-29
			C1147,219.61,1164.9,215.21,1183.5,221.01z M242,227.91v8h-12.5H217v7.5v7.5h12.5H242v7.5v7.5h-12.5H217v18.5v18.5h-8h-8v-41.5
			v-41.5h20.5H242V227.91z M375.9,248.21c5.1,15.3,9.5,27.6,9.7,27.4s4.6-12.7,9.7-27.8l9.2-27.4l7.7-0.3c6.6-0.2,7.7,0,8.2,1.5
			c0.3,1,3.2,18.4,6.6,38.8c3.3,20.3,6.3,38.2,6.6,39.7l0.6,2.8h-7.9h-7.9l-3.8-22.8c-2.1-12.5-4.1-23.6-4.5-24.6
			c-0.5-1.4-3.2,5.1-9.2,22.5l-8.4,24.4l-7.2,0.3l-7.1,0.3l-4.3-13.3c-8.1-25.5-12.2-36.3-13-34.2c-0.5,1-2.5,11.8-4.5,23.9
			c-2,12.1-3.8,22.3-4.1,22.7c-0.2,0.5-3.8,0.8-8,0.8h-7.5l0.6-4.8c0.7-4.9,12.2-70.6,13.2-75.5l0.6-2.8l7.6,0.3l7.7,0.3
			L375.9,248.21z M522.8,241.91c7.3,19.2,12.5,32.6,20.6,54.2l2.6,6.8h-8.5h-8.4l-3.2-8.5l-3.3-8.5l-16.5,0.2l-16.6,0.3l-3.1,8
			l-3.2,8l-8.1,0.3c-6.3,0.2-8.1,0-8.1-1.1s22.5-60.1,29.5-77.5l1.7-4.3l8.2,0.3l8.1,0.3L522.8,241.91z M625.7,222.31
			c10.3,3.2,19.8,13.2,23.3,24.5c2.5,8,2.7,22.4,0.4,30.1c-3.2,11-9.8,18.6-20,23.2c-4.4,2-6.8,2.3-24.1,2.6l-19.3,0.4v-41.7v-41.8
			l17.3,0.6C615,220.51,622.2,221.21,625.7,222.31z M744.3,245.91c5.4,14,12,31.3,14.7,38.5c2.6,7.1,5.3,14.2,5.9,15.7l1.1,2.8h-8.5
			h-8.4l-3.2-8.5l-3.2-8.5h-16.6h-16.6l-3.3,8.5l-3.4,8.5h-7.9c-6.1,0-7.9-0.3-7.9-1.4c0-1.2,3.5-10.6,23.5-62.1
			c3-7.7,5.9-15.3,6.4-16.8c1.1-2.8,1.1-2.8,9.3-2.5l8.2,0.3L744.3,245.91z M984.2,255.91c7.5,19.5,14.6,38.1,15.7,41.2l2,5.8h-8.3
			h-8.3l-3.3-8.5l-3.2-8.5l-16.6,0.2l-16.6,0.3l-3.2,8l-3.2,8l-8.1,0.3c-6.2,0.2-8.1,0-8.1-1c0-1.2,8.1-22.5,25.6-67.6l5.6-14.3
			l8.1,0.3l8.2,0.3L984.2,255.91z M1292,235.41c5.3,13.9,19.8,51.8,24.1,62.8l1.9,4.8l-8.7-0.3l-8.6-0.3l-3.1-8.3l-3.1-8.2h-16.6
			h-16.6l-3.3,8.5l-3.3,8.5h-8.5c-7.6,0-8.4-0.2-7.8-1.8c5-12.9,30.9-79.9,31.3-80.5c0.3-0.4,4.1-0.6,8.5-0.5l8.1,0.3L1292,235.41z
			 M1389.2,221.31c10.2,2.4,16.3,9.2,17.5,19.6c1.2,9.9-3.2,19.2-10.8,23c-2.1,1.1-3.9,2.3-3.9,2.7c0,0.6,9.5,18.7,15.7,30.1
			l3.5,6.3l-9.2-0.3l-9.2-0.3l-8.1-15.5c-4.5-8.5-8.7-16.4-9.4-17.5c-1-1.6-1.2,1.4-1.3,15.7v17.8h-8h-8v-41.5v-41.5h12.8
			C1377.9,219.91,1386,220.51,1389.2,221.31z"/>
		<path class="st1" d="M107.6,235.41c-7.7,2.7-14.6,10.1-16.7,17.9c-1.5,5.6-0.7,16.3,1.6,21c2.3,4.7,7.4,9.9,12.3,12.2
			c4.6,2.2,15.8,3,20.5,1.5c4.8-1.6,12.3-8.4,14.9-13.5c3-5.8,3.5-15.9,1.3-22.7C137,238.41,121,230.61,107.6,235.41z"/>
		<path class="st1" d="M505.7,244.61c-0.9,1.6-9.7,24.5-9.7,25.4c0,0.5,4.5,0.9,10,0.9c8,0,10-0.3,10-1.4c0-1.2-8.7-24.6-9.5-25.4
			C506.3,243.91,506,244.11,505.7,244.61z"/>
		<path class="st1" d="M602,261.81v26.3l8.8-0.7c9-0.8,14.2-2.3,17.5-5.3c5.8-5.2,8.3-19.1,5.3-29.5c-3.2-10.8-9.9-15.5-23.8-16.4
			l-7.8-0.6V261.81z"/>
		<path class="st1" d="M725.8,244.51c-1,1.7-9.8,24.6-9.8,25.5c0,0.5,4.5,0.9,10,0.9c8.9,0,10-0.2,10-1.8
			C735.9,266.51,726.4,243.51,725.8,244.51z"/>
		<path class="st1" d="M961,246.51c-0.6,1.6-2.9,7.4-5.1,13c-2.1,5.5-3.9,10.3-3.9,10.7s4.5,0.7,10,0.7c8.1,0,10-0.3,10-1.5
			c0-1.3-8.7-24.5-9.6-25.4C962.2,243.81,961.6,244.91,961,246.51z"/>
		<path class="st1" d="M1273.2,255.21c-6.6,17.4-7.2,15.7,4.7,15.7c5.5,0,10.1-0.3,10.1-0.8c0.1-1.2-9.4-26.2-10-26.2
			C1277.7,243.91,1275.6,249.01,1273.2,255.21z"/>
		<path class="st1" d="M1374,244.51v8.7l3.8-0.7c2-0.3,4.9-0.6,6.3-0.6c6.6,0,9.6-9.7,4.3-13.9c-2-1.6-4.1-2.1-8.5-2.1h-5.9V244.51z
			"/>
	</g>
</g>
</svg>
